Input #0, rtsp, from 'rtsp://localhost:8554/kesanapalli-04':
  Metadata:
    title           : LIVE VIEW
  Duration: N/A, start: -0.988233, bitrate: N/A
  Stream #0:0: Video: hevc (Main), yuvj420p(pc, bt709/bt709/iec61966-2-1), 1280x720 [SAR 1:1 DAR 16:9], 25 tbr, 90k tbn, start -0.988233
Stream mapping:
  Stream #0:0 -> #0:0 (hevc (native) -> h264 (libx264))
[hevc @ 0000022db3e8f540] PPS changed between slices.
[hevc @ 0000022db3e8f540] Skipping invalid undecodable NALU: 19
[hevc @ 0000022db3e8f540] PPS changed between slices.
[hevc @ 0000022db3e8f540] Skipping invalid undecodable NALU: 19
[hevc @ 0000022db3e8f540] Could not find ref with POC 0
[hevc @ 0000022db3e8f540] Error constructing the frame RPS.
[hevc @ 0000022db3e8f540] Skipping invalid undecodable NALU: 1
[hevc @ 0000022db3e8f540] First slice in a frame missing.
[hevc @ 0000022db3e8f540] Skipping invalid undecodable NALU: 1
[hevc @ 0000022db3e8f540] First slice in a frame missing.
[hevc @ 0000022db3e8f540] Skipping invalid undecodable NALU: 1
[hevc @ 0000022db39c7ac0] Could not find ref with POC 1
[hevc @ 0000022db39c7ac0] Error constructing the frame RPS.
[hevc @ 0000022db39c7ac0] Skipping invalid undecodable NALU: 1
[hevc @ 0000022db39c7ac0] First slice in a frame missing.
[hevc @ 0000022db39c7ac0] Skipping invalid undecodable NALU: 1
[hevc @ 0000022db39c7ac0] First slice in a frame missing.
[hevc @ 0000022db39c7ac0] Skipping invalid undecodable NALU: 1
[hevc @ 0000022db39c7e80] Could not find ref with POC 2
[hevc @ 0000022db39c7e80] Error constructing the frame RPS.
[hevc @ 0000022db39c7e80] Skipping invalid undecodable NALU: 1
[hevc @ 0000022db39c7e80] First slice in a frame missing.
[hevc @ 0000022db39c7e80] Skipping invalid undecodable NALU: 1
[hevc @ 0000022db39c7e80] First slice in a frame missing.
[hevc @ 0000022db39c7e80] Skipping invalid undecodable NALU: 1
[hevc @ 0000022db39c8240] Could not find ref with POC 3
[hevc @ 0000022db39c8240] Error constructing the frame RPS.
[hevc @ 0000022db39c8240] Skipping invalid undecodable NALU: 1
[hevc @ 0000022db39c8240] First slice in a frame missing.
[hevc @ 0000022db39c8240] Skipping invalid undecodable NALU: 1
[hevc @ 0000022db39c8240] First slice in a frame missing.
[hevc @ 0000022db39c8240] Skipping invalid undecodable NALU: 1
[hevc @ 0000022db3f875c0] Could not find ref with POC 4
[hevc @ 0000022db3f875c0] Error constructing the frame RPS.
[hevc @ 0000022db3f875c0] Skipping invalid undecodable NALU: 1
[hevc @ 0000022db3f875c0] First slice in a frame missing.
[hevc @ 0000022db3f875c0] Skipping invalid undecodable NALU: 1
[hevc @ 0000022db3f875c0] First slice in a frame missing.
[hevc @ 0000022db3f875c0] Skipping invalid undecodable NALU: 1
[hevc @ 0000022db3f994c0] Could not find ref with POC 5
[hevc @ 0000022db3f994c0] Error constructing the frame RPS.
[hevc @ 0000022db3f994c0] Skipping invalid undecodable NALU: 1
[hevc @ 0000022db3f994c0] First slice in a frame missing.
[hevc @ 0000022db3f994c0] Skipping invalid undecodable NALU: 1
[hevc @ 0000022db3f994c0] First slice in a frame missing.
[hevc @ 0000022db3f994c0] Skipping invalid undecodable NALU: 1
[hevc @ 0000022db448f200] Could not find ref with POC 6
[hevc @ 0000022db448f200] Error constructing the frame RPS.
[hevc @ 0000022db448f200] Skipping invalid undecodable NALU: 1
[hevc @ 0000022db448f200] First slice in a frame missing.
[hevc @ 0000022db448f200] Skipping invalid undecodable NALU: 1
[hevc @ 0000022db448f200] First slice in a frame missing.
[hevc @ 0000022db448f200] Skipping invalid undecodable NALU: 1
[hevc @ 0000022db453e700] Could not find ref with POC 7
[hevc @ 0000022db453e700] Error constructing the frame RPS.
[hevc @ 0000022db453e700] Skipping invalid undecodable NALU: 1
[hevc @ 0000022db453e700] First slice in a frame missing.
[hevc @ 0000022db453e700] Skipping invalid undecodable NALU: 1
[hevc @ 0000022db453e700] First slice in a frame missing.
[hevc @ 0000022db453e700] Skipping invalid undecodable NALU: 1
[hevc @ 0000022db3fd1a40] Could not find ref with POC 8
[hevc @ 0000022db3fd1a40] Error constructing the frame RPS.
[hevc @ 0000022db3fd1a40] Skipping invalid undecodable NALU: 1
[hevc @ 0000022db3fd1a40] First slice in a frame missing.
[hevc @ 0000022db3fd1a40] Skipping invalid undecodable NALU: 1
[hevc @ 0000022db3fd1a40] First slice in a frame missing.
[hevc @ 0000022db3fd1a40] Skipping invalid undecodable NALU: 1
[swscaler @ 0000022db6ea15c0] deprecated pixel format used, make sure you did set range correctly
[libx264 @ 0000022db39d89c0] using SAR=1/1
[libx264 @ 0000022db39d89c0] using cpu capabilities: MMX2 SSE2Fast SSSE3 SSE4.2 AVX FMA3 BMI2 AVX2 AVX512
[libx264 @ 0000022db39d89c0] profile High, level 3.1, 4:2:0, 8-bit
[libx264 @ 0000022db39d89c0] 264 - core 165 r3222 b35605a - H.264/MPEG-4 AVC codec - Copyleft 2003-2025 - http://www.videolan.org/x264.html - options: cabac=1 ref=1 deblock=1:0:0 analyse=0x3:0x113 me=hex subme=2 psy=1 psy_rd=1.00:0.00 mixed_ref=0 me_range=16 chroma_me=1 trellis=0 8x8dct=1 cqm=0 deadzone=21,11 fast_pskip=1 chroma_qp_offset=0 threads=8 lookahead_threads=8 sliced_threads=1 slices=8 nr=0 decimate=1 interlaced=0 bluray_compat=0 constrained_intra=0 bframes=0 weightp=1 keyint=50 keyint_min=26 scenecut=0 intra_refresh=0 rc=crf mbtree=0 crf=23.0 qcomp=0.60 qpmin=0 qpmax=69 qpstep=4 ip_ratio=1.40 aq=1:1.00
Output #0, rtsp, to 'rtsp://localhost:8554/kesanapalli-04-h264':
  Metadata:
    title           : LIVE VIEW
    encoder         : Lavf62.3.100
  Stream #0:0: Video: h264, yuv420p(pc, bt709/bt709/iec61966-2-1, progressive), 1280x720 [SAR 1:1 DAR 16:9], q=2-31, 25 fps, 90k tbn
    Metadata:
      encoder         : Lavc62.11.100 libx264
    Side data:
      cpb: bitrate max/min/avg: 0/0/0 buffer size: 0 vbv_delay: N/A
frame=   42 fps=0.0 q=19.0 size=N/A time=00:00:02.00 bitrate=N/A dup=30 drop=0 speed=3.93x elapsed=0:00:00.50    frame=   52 fps= 50 q=26.0 size=N/A time=00:00:02.40 bitrate=N/A dup=30 drop=0 speed= 2.3x elapsed=0:00:01.04    frame=   56 fps= 36 q=17.0 size=N/A time=00:00:02.56 bitrate=N/A dup=30 drop=0 speed=1.65x elapsed=0:00:01.55    frame=   66 fps= 32 q=14.0 size=N/A time=00:00:02.96 bitrate=N/A dup=30 drop=0 speed=1.42x elapsed=0:00:02.07    frame=   90 fps= 35 q=12.0 size=N/A time=00:00:03.92 bitrate=N/A dup=65 drop=0 speed=1.52x elapsed=0:00:02.58    frame=  122 fps= 39 q=13.0 size=N/A time=00:00:05.20 bitrate=N/A dup=65 drop=0 speed=1.68x elapsed=0:00:03.09    frame=  127 fps= 35 q=21.0 size=N/A time=00:00:05.40 bitrate=N/A dup=65 drop=0 speed=1.49x elapsed=0:00:03.62    frame=  137 fps= 33 q=21.0 size=N/A time=00:00:05.80 bitrate=N/A dup=65 drop=0 speed= 1.4x elapsed=0:00:04.14    frame=  142 fps= 30 q=13.0 size=N/A time=00:00:06.00 bitrate=N/A dup=65 drop=0 speed=1.28x elapsed=0:00:04.67    frame=  157 fps= 30 q=21.0 size=N/A time=00:00:06.60 bitrate=N/A dup=65 drop=0 speed=1.27x elapsed=0:00:05.20    frame=  162 fps= 28 q=13.0 size=N/A time=00:00:06.80 bitrate=N/A dup=65 drop=0 speed=1.19x elapsed=0:00:05.72    frame=  167 fps= 27 q=21.0 size=N/A time=00:00:07.00 bitrate=N/A dup=65 drop=0 speed=1.12x elapsed=0:00:06.24    frame=  177 fps= 26 q=21.0 size=N/A time=00:00:07.40 bitrate=N/A dup=65 drop=0 speed= 1.1x elapsed=0:00:06.75    frame=  177 fps= 24 q=21.0 size=N/A time=00:00:07.40 bitrate=N/A dup=65 drop=0 speed=1.02x elapsed=0:00:07.28    frame=  217 fps= 28 q=19.0 size=N/A time=00:00:09.00 bitrate=N/A dup=95 drop=0 speed=1.16x elapsed=0:00:07.78    frame=  227 fps= 27 q=21.0 size=N/A time=00:00:09.40 bitrate=N/A dup=95 drop=0 speed=1.13x elapsed=0:00:08.31    frame=  227 fps= 26 q=21.0 size=N/A time=00:00:09.40 bitrate=N/A dup=95 drop=0 speed=1.07x elapsed=0:00:08.81    frame=  237 fps= 25 q=21.0 size=N/A time=00:00:09.80 bitrate=N/A dup=95 drop=0 speed=1.05x elapsed=0:00:09.34    frame=  276 fps= 28 q=21.0 size=N/A time=00:00:11.36 bitrate=N/A dup=125 drop=0 speed=1.15x elapsed=0:00:09.84    frame=  287 fps= 28 q=21.0 size=N/A time=00:00:11.80 bitrate=N/A dup=125 drop=0 speed=1.14x elapsed=0:00:10.36    frame=  287 fps= 26 q=21.0 size=N/A time=00:00:11.80 bitrate=N/A dup=125 drop=0 speed=1.08x elapsed=0:00:10.88    frame=  297 fps= 26 q=21.0 size=N/A time=00:00:12.20 bitrate=N/A dup=125 drop=0 speed=1.07x elapsed=0:00:11.40    frame=  307 fps= 26 q=21.0 size=N/A time=00:00:12.60 bitrate=N/A dup=125 drop=0 speed=1.06x elapsed=0:00:11.91    frame=  330 fps= 27 q=12.0 size=N/A time=00:00:13.52 bitrate=N/A dup=155 drop=0 speed=1.09x elapsed=0:00:12.42    frame=  357 fps= 28 q=21.0 size=N/A time=00:00:14.60 bitrate=N/A dup=155 drop=0 speed=1.13x elapsed=0:00:12.94    frame=  367 fps= 27 q=21.0 size=N/A time=00:00:15.00 bitrate=N/A dup=155 drop=0 speed=1.11x elapsed=0:00:13.46    frame=  367 fps= 26 q=21.0 size=N/A time=00:00:15.00 bitrate=N/A dup=155 drop=0 speed=1.07x elapsed=0:00:13.97    frame=  377 fps= 26 q=21.0 size=N/A time=00:00:15.40 bitrate=N/A dup=155 drop=0 speed=1.06x elapsed=0:00:14.48    frame=  377 fps= 25 q=21.0 size=N/A time=00:00:15.40 bitrate=N/A dup=155 drop=0 speed=1.03x elapsed=0:00:15.01    frame=  381 fps= 24 q=14.0 size=N/A time=00:00:15.56 bitrate=N/A dup=155 drop=0 speed=0.999x elapsed=0:00:15.57    frame=  397 fps= 25 q=21.0 size=N/A time=00:00:16.20 bitrate=N/A dup=155 drop=0 speed=1.01x elapsed=0:00:16.08    frame=  397 fps= 24 q=21.0 size=N/A time=00:00:16.20 bitrate=N/A dup=155 drop=0 speed=0.975x elapsed=0:00:16.60    frame=  445 fps= 26 q=23.0 size=N/A time=00:00:18.12 bitrate=N/A dup=195 drop=0 speed=1.06x elapsed=0:00:17.11    frame=  447 fps= 25 q=19.0 size=N/A time=00:00:18.20 bitrate=N/A dup=195 drop=0 speed=1.03x elapsed=0:00:17.64    frame=  457 fps= 25 q=21.0 size=N/A time=00:00:18.60 bitrate=N/A dup=195 drop=0 speed=1.02x elapsed=0:00:18.17    frame=  457 fps= 24 q=21.0 size=N/A time=00:00:18.60 bitrate=N/A dup=195 drop=0 speed=0.995x elapsed=0:00:18.68    frame=  464 fps= 24 q=13.0 size=N/A time=00:00:18.88 bitrate=N/A dup=195 drop=0 speed=0.982x elapsed=0:00:19.21    frame=  467 fps= 24 q=21.0 size=N/A time=00:00:19.00 bitrate=N/A dup=195 drop=0 speed=0.963x elapsed=0:00:19.72    frame=  474 fps= 23 q=14.0 size=N/A time=00:00:19.28 bitrate=N/A dup=195 drop=0 speed=0.953x elapsed=0:00:20.23    frame=  477 fps= 23 q=21.0 size=N/A time=00:00:19.40 bitrate=N/A dup=195 drop=0 speed=0.934x elapsed=0:00:20.76    frame=  499 fps= 23 q=12.0 size=N/A time=00:00:20.28 bitrate=N/A dup=260 drop=0 speed=0.952x elapsed=0:00:21.29    frame=  552 fps= 25 q=26.0 size=N/A time=00:00:22.40 bitrate=N/A dup=260 drop=0 speed=1.03x elapsed=0:00:21.81    frame=  562 fps= 25 q=21.0 size=N/A time=00:00:22.80 bitrate=N/A dup=260 drop=0 speed=1.02x elapsed=0:00:22.32    frame=  562 fps= 25 q=21.0 size=N/A time=00:00:22.80 bitrate=N/A dup=260 drop=0 speed=0.999x elapsed=0:00:22.83    frame=  562 fps= 24 q=21.0 size=N/A time=00:00:22.80 bitrate=N/A dup=260 drop=0 speed=0.976x elapsed=0:00:23.35    frame=  572 fps= 24 q=21.0 size=N/A time=00:00:23.20 bitrate=N/A dup=260 drop=0 speed=0.972x elapsed=0:00:23.86    frame=  583 fps= 24 q=12.0 size=N/A time=00:00:23.64 bitrate=N/A dup=300 drop=0 speed=0.969x elapsed=0:00:24.38    frame=  622 fps= 25 q=19.0 size=N/A time=00:00:25.20 bitrate=N/A dup=300 drop=0 speed=1.01x elapsed=0:00:24.90    frame=  622 fps= 24 q=19.0 size=N/A time=00:00:25.20 bitrate=N/A dup=300 drop=0 speed=0.992x elapsed=0:00:25.41    frame=  632 fps= 24 q=21.0 size=N/A time=00:00:25.60 bitrate=N/A dup=300 drop=0 speed=0.987x elapsed=0:00:25.93    frame=  634 fps= 24 q=17.0 size=N/A time=00:00:25.68 bitrate=N/A dup=300 drop=0 speed=0.971x elapsed=0:00:26.45    frame=  682 fps= 25 q=19.0 size=N/A time=00:00:27.60 bitrate=N/A dup=340 drop=0 speed=1.02x elapsed=0:00:26.96    frame=  682 fps= 25 q=19.0 size=N/A time=00:00:27.60 bitrate=N/A dup=340 drop=0 speed=   1x elapsed=0:00:27.48    frame=  692 fps= 25 q=21.0 size=N/A time=00:00:28.00 bitrate=N/A dup=340 drop=0 speed=   1x elapsed=0:00:28.00    frame=  702 fps= 25 q=26.0 size=N/A time=00:00:28.40 bitrate=N/A dup=340 drop=0 speed=0.996x elapsed=0:00:28.52    frame=  702 fps= 24 q=26.0 size=N/A time=00:00:28.40 bitrate=N/A dup=340 drop=0 speed=0.978x elapsed=0:00:29.04    frame=  702 fps= 24 q=26.0 size=N/A time=00:00:28.40 bitrate=N/A dup=340 drop=0 speed=0.961x elapsed=0:00:29.55    frame=  702 fps= 23 q=26.0 size=N/A time=00:00:28.40 bitrate=N/A dup=340 drop=0 speed=0.945x elapsed=0:00:30.06    frame=  702 fps= 23 q=26.0 size=N/A time=00:00:28.40 bitrate=N/A dup=340 drop=0 speed=0.928x elapsed=0:00:30.59    frame=  702 fps= 23 q=26.0 size=N/A time=00:00:28.40 bitrate=N/A dup=340 drop=0 speed=0.913x elapsed=0:00:31.10    frame=  762 fps= 24 q=19.0 size=N/A time=00:00:30.80 bitrate=N/A dup=390 drop=0 speed=0.974x elapsed=0:00:31.61    frame=  772 fps= 24 q=21.0 size=N/A time=00:00:31.20 bitrate=N/A dup=390 drop=0 speed=0.971x elapsed=0:00:32.14    frame=  776 fps= 24 q=14.0 size=N/A time=00:00:31.36 bitrate=N/A dup=390 drop=0 speed=0.96x elapsed=0:00:32.65    frame=  782 fps= 24 q=21.0 size=N/A time=00:00:31.60 bitrate=N/A dup=390 drop=0 speed=0.953x elapsed=0:00:33.16    frame=  782 fps= 23 q=21.0 size=N/A time=00:00:31.60 bitrate=N/A dup=390 drop=0 speed=0.938x elapsed=0:00:33.67    frame=  782 fps= 23 q=21.0 size=N/A time=00:00:31.60 bitrate=N/A dup=390 drop=0 speed=0.924x elapsed=0:00:34.20    frame=  786 fps= 23 q=14.0 size=N/A time=00:00:31.76 bitrate=N/A dup=390 drop=0 speed=0.915x elapsed=0:00:34.71    frame=  792 fps= 22 q=21.0 size=N/A time=00:00:32.00 bitrate=N/A dup=390 drop=0 speed=0.908x elapsed=0:00:35.22    frame=  792 fps= 22 q=21.0 size=N/A time=00:00:32.00 bitrate=N/A dup=390 drop=0 speed=0.895x elapsed=0:00:35.73    frame=  869 fps= 24 q=12.0 size=N/A time=00:00:35.08 bitrate=N/A dup=481 drop=0 speed=0.967x elapsed=0:00:36.26    frame=  897 fps= 24 q=13.0 size=N/A time=00:00:36.20 bitrate=N/A dup=481 drop=0 speed=0.984x elapsed=0:00:36.77    frame=  903 fps= 24 q=24.0 size=N/A time=00:00:36.44 bitrate=N/A dup=481 drop=0 speed=0.977x elapsed=0:00:37.29    frame=  913 fps= 24 q=21.0 size=N/A time=00:00:36.84 bitrate=N/A dup=481 drop=0 speed=0.974x elapsed=0:00:37.82    frame=  913 fps= 24 q=21.0 size=N/A time=00:00:36.84 bitrate=N/A dup=481 drop=0 speed=0.961x elapsed=0:00:38.33    frame=  913 fps= 23 q=21.0 size=N/A time=00:00:36.84 bitrate=N/A dup=481 drop=0 speed=0.948x elapsed=0:00:38.85    frame=  916 fps= 23 q=15.0 size=N/A time=00:00:36.96 bitrate=N/A dup=481 drop=0 speed=0.938x elapsed=0:00:39.38    frame=  979 fps= 25 q=12.0 size=N/A time=00:00:39.48 bitrate=N/A dup=551 drop=0 speed=0.99x elapsed=0:00:39.89    frame=  995 fps= 25 q=16.0 size=N/A time=00:00:40.12 bitrate=N/A dup=551 drop=0 speed=0.993x elapsed=0:00:40.41    frame= 1003 fps= 25 q=25.0 size=N/A time=00:00:40.44 bitrate=N/A dup=551 drop=0 speed=0.988x elapsed=0:00:40.93    frame= 1003 fps= 24 q=25.0 size=N/A time=00:00:40.44 bitrate=N/A dup=551 drop=0 speed=0.976x elapsed=0:00:41.45    frame= 1013 fps= 24 q=21.0 size=N/A time=00:00:40.84 bitrate=N/A dup=551 drop=0 speed=0.973x elapsed=0:00:41.98    frame= 1013 fps= 24 q=21.0 size=N/A time=00:00:40.84 bitrate=N/A dup=551 drop=0 speed=0.961x elapsed=0:00:42.49    frame= 1013 fps= 24 q=21.0 size=N/A time=00:00:40.84 bitrate=N/A dup=551 drop=0 speed=0.95x elapsed=0:00:43.00    frame= 1016 fps= 23 q=16.0 size=N/A time=00:00:40.96 bitrate=N/A dup=551 drop=0 speed=0.941x elapsed=0:00:43.52    frame= 1074 fps= 24 q=12.0 size=N/A time=00:00:43.28 bitrate=N/A dup=606 drop=0 speed=0.983x elapsed=0:00:44.03    frame= 1078 fps= 24 q=19.0 size=N/A time=00:00:43.44 bitrate=N/A dup=606 drop=0 speed=0.975x elapsed=0:00:44.55    frame= 1078 fps= 24 q=19.0 size=N/A time=00:00:43.44 bitrate=N/A dup=606 drop=0 speed=0.964x elapsed=0:00:45.07    frame= 1088 fps= 24 q=21.0 size=N/A time=00:00:43.84 bitrate=N/A dup=606 drop=0 speed=0.962x elapsed=0:00:45.58    frame= 1088 fps= 24 q=21.0 size=N/A time=00:00:43.84 bitrate=N/A dup=606 drop=0 speed=0.951x elapsed=0:00:46.09    frame= 1088 fps= 23 q=21.0 size=N/A time=00:00:43.84 bitrate=N/A dup=606 drop=0 speed=0.94x elapsed=0:00:46.62    frame= 1088 fps= 23 q=21.0 size=N/A time=00:00:43.84 bitrate=N/A dup=606 drop=0 speed=0.93x elapsed=0:00:47.12    frame= 1089 fps= 23 q=19.0 size=N/A time=00:00:43.88 bitrate=N/A dup=606 drop=0 speed=0.921x elapsed=0:00:47.65    frame= 1098 fps= 23 q=21.0 size=N/A time=00:00:44.24 bitrate=N/A dup=606 drop=0 speed=0.919x elapsed=0:00:48.16    frame= 1121 fps= 23 q=12.0 size=N/A time=00:00:45.16 bitrate=N/A dup=706 drop=0 speed=0.928x elapsed=0:00:48.67    frame= 1208 fps= 25 q=19.0 size=N/A time=00:00:48.64 bitrate=N/A dup=706 drop=0 speed=0.989x elapsed=0:00:49.19    frame= 1208 fps= 24 q=19.0 size=N/A time=00:00:48.64 bitrate=N/A dup=706 drop=0 speed=0.978x elapsed=0:00:49.71    frame= 1209 fps= 24 q=17.0 size=N/A time=00:00:48.68 bitrate=N/A dup=706 drop=0 speed=0.969x elapsed=0:00:50.22    frame= 1218 fps= 24 q=21.0 size=N/A time=00:00:49.04 bitrate=N/A dup=706 drop=0 speed=0.966x elapsed=0:00:50.74    frame= 1218 fps= 24 q=21.0 size=N/A time=00:00:49.04 bitrate=N/A dup=706 drop=0 speed=0.957x elapsed=0:00:51.25    frame= 1218 fps= 24 q=21.0 size=N/A time=00:00:49.04 bitrate=N/A dup=706 drop=0 speed=0.947x elapsed=0:00:51.77    frame= 1228 fps= 23 q=21.0 size=N/A time=00:00:49.44 bitrate=N/A dup=706 drop=0 speed=0.945x elapsed=0:00:52.29    frame= 1228 fps= 23 q=21.0 size=N/A time=00:00:49.44 bitrate=N/A dup=706 drop=0 speed=0.936x elapsed=0:00:52.79    frame= 1228 fps= 23 q=21.0 size=N/A time=00:00:49.44 bitrate=N/A dup=706 drop=0 speed=0.927x elapsed=0:00:53.32    frame= 1260 fps= 23 q=13.0 size=N/A time=00:00:50.72 bitrate=N/A dup=776 drop=0 speed=0.942x elapsed=0:00:53.83    frame= 1308 fps= 24 q=19.0 size=N/A time=00:00:52.64 bitrate=N/A dup=776 drop=0 speed=0.968x elapsed=0:00:54.36    frame= 1308 fps= 24 q=19.0 size=N/A time=00:00:52.64 bitrate=N/A dup=776 drop=0 speed=0.959x elapsed=0:00:54.89    frame= 1318 fps= 24 q=21.0 size=N/A time=00:00:53.04 bitrate=N/A dup=776 drop=0 speed=0.957x elapsed=0:00:55.40    frame= 1318 fps= 24 q=21.0 size=N/A time=00:00:53.04 bitrate=N/A dup=776 drop=0 speed=0.948x elapsed=0:00:55.93    frame= 1318 fps= 23 q=21.0 size=N/A time=00:00:53.04 bitrate=N/A dup=776 drop=0 speed=0.94x elapsed=0:00:56.44    frame= 1321 fps= 23 q=16.0 size=N/A time=00:00:53.16 bitrate=N/A dup=776 drop=0 speed=0.933x elapsed=0:00:56.95    frame= 1404 fps= 24 q=21.0 size=N/A time=00:00:56.48 bitrate=N/A dup=855 drop=0 speed=0.983x elapsed=0:00:57.48    frame= 1407 fps= 24 q=20.0 size=N/A time=00:00:56.60 bitrate=N/A dup=855 drop=0 speed=0.976x elapsed=0:00:58.01    frame= 1407 fps= 24 q=20.0 size=N/A time=00:00:56.60 bitrate=N/A dup=855 drop=0 speed=0.967x elapsed=0:00:58.52    frame= 1407 fps= 24 q=20.0 size=N/A time=00:00:56.60 bitrate=N/A dup=855 drop=0 speed=0.959x elapsed=0:00:59.04    frame= 1407 fps= 24 q=20.0 size=N/A time=00:00:56.60 bitrate=N/A dup=855 drop=0 speed=0.95x elapsed=0:00:59.55    frame= 1407 fps= 23 q=20.0 size=N/A time=00:00:56.60 bitrate=N/A dup=855 drop=0 speed=0.942x elapsed=0:01:00.07    frame= 1417 fps= 23 q=21.0 size=N/A time=00:00:57.00 bitrate=N/A dup=855 drop=0 speed=0.941x elapsed=0:01:00.60    frame= 1417 fps= 23 q=21.0 size=N/A time=00:00:57.00 bitrate=N/A dup=855 drop=0 speed=0.933x elapsed=0:01:01.12    frame= 1417 fps= 23 q=21.0 size=N/A time=00:00:57.00 bitrate=N/A dup=855 drop=0 speed=0.925x elapsed=0:01:01.63    frame= 1417 fps= 23 q=21.0 size=N/A time=00:00:57.00 bitrate=N/A dup=855 drop=0 speed=0.917x elapsed=0:01:02.14    frame= 1417 fps= 23 q=21.0 size=N/A time=00:00:57.00 bitrate=N/A dup=855 drop=0 speed=0.909x elapsed=0:01:02.67    frame= 1478 fps= 23 q=19.0 size=N/A time=00:00:59.44 bitrate=N/A dup=906 drop=0 speed=0.941x elapsed=0:01:03.19    frame= 1488 fps= 23 q=21.0 size=N/A time=00:00:59.84 bitrate=N/A dup=906 drop=0 speed=0.939x elapsed=0:01:03.71    frame= 1533 fps= 24 q=12.0 size=N/A time=00:01:01.64 bitrate=N/A dup=1051 drop=0 speed=0.96x elapsed=0:01:04.23    frame= 1628 fps= 25 q=12.0 size=N/A time=00:01:05.44 bitrate=N/A dup=1051 drop=0 speed=1.01x elapsed=0:01:04.74    frame= 1653 fps= 25 q=25.0 size=N/A time=00:01:06.44 bitrate=N/A dup=1051 drop=0 speed=1.02x elapsed=0:01:05.25    frame= 1663 fps= 25 q=21.0 size=N/A time=00:01:06.84 bitrate=N/A dup=1051 drop=0 speed=1.02x elapsed=0:01:05.77    frame= 1673 fps= 25 q=21.0 size=N/A time=00:01:07.24 bitrate=N/A dup=1051 drop=0 speed=1.01x elapsed=0:01:06.28    frame= 1674 fps= 25 q=19.0 size=N/A time=00:01:07.28 bitrate=N/A dup=1051 drop=0 speed=1.01x elapsed=0:01:06.81    [vf#0:0 @ 0000022db39cf740] More than 1000 frames duplicated
frame= 1713 fps= 25 q=19.0 size=N/A time=00:01:08.84 bitrate=N/A dup=1081 drop=0 speed=1.02x elapsed=0:01:07.33    frame= 1723 fps= 25 q=21.0 size=N/A time=00:01:09.24 bitrate=N/A dup=1081 drop=0 speed=1.02x elapsed=0:01:07.86    frame= 1733 fps= 25 q=21.0 size=N/A time=00:01:09.64 bitrate=N/A dup=1081 drop=0 speed=1.02x elapsed=0:01:08.38    frame= 1743 fps= 25 q=21.0 size=N/A time=00:01:10.04 bitrate=N/A dup=1081 drop=0 speed=1.02x elapsed=0:01:08.90    frame= 1773 fps= 26 q=19.0 size=N/A time=00:01:11.24 bitrate=N/A dup=1101 drop=0 speed=1.03x elapsed=0:01:09.41    frame= 1783 fps= 25 q=21.0 size=N/A time=00:01:11.64 bitrate=N/A dup=1101 drop=0 speed=1.02x elapsed=0:01:09.93    frame= 1793 fps= 25 q=21.0 size=N/A time=00:01:12.04 bitrate=N/A dup=1101 drop=0 speed=1.02x elapsed=0:01:10.46    frame= 1793 fps= 25 q=21.0 size=N/A time=00:01:12.04 bitrate=N/A dup=1101 drop=0 speed=1.01x elapsed=0:01:10.98    frame= 1803 fps= 25 q=25.0 size=N/A time=00:01:12.44 bitrate=N/A dup=1101 drop=0 speed=1.01x elapsed=0:01:11.49    frame= 1813 fps= 25 q=21.0 size=N/A time=00:01:12.84 bitrate=N/A dup=1101 drop=0 speed=1.01x elapsed=0:01:12.00    frame= 1819 fps= 25 q=13.0 size=N/A time=00:01:13.08 bitrate=N/A dup=1101 drop=0 speed=1.01x elapsed=0:01:12.52    frame= 1853 fps= 25 q=23.0 size=N/A time=00:01:14.44 bitrate=N/A dup=1131 drop=0 speed=1.02x elapsed=0:01:13.03    frame= 1853 fps= 25 q=23.0 size=N/A time=00:01:14.44 bitrate=N/A dup=1131 drop=0 speed=1.01x elapsed=0:01:13.56    frame= 1853 fps= 25 q=23.0 size=N/A time=00:01:14.44 bitrate=N/A dup=1131 drop=0 speed=   1x elapsed=0:01:14.07    frame= 1863 fps= 25 q=21.0 size=N/A time=00:01:14.84 bitrate=N/A dup=1131 drop=0 speed=   1x elapsed=0:01:14.57    frame= 1863 fps= 25 q=21.0 size=N/A time=00:01:14.84 bitrate=N/A dup=1131 drop=0 speed=0.996x elapsed=0:01:15.10    frame= 1863 fps= 25 q=21.0 size=N/A time=00:01:14.84 bitrate=N/A dup=1131 drop=0 speed=0.99x elapsed=0:01:15.61    frame= 1863 fps= 24 q=21.0 size=N/A time=00:01:14.84 bitrate=N/A dup=1131 drop=0 speed=0.983x elapsed=0:01:16.13    frame= 1873 fps= 24 q=21.0 size=N/A time=00:01:15.24 bitrate=N/A dup=1131 drop=0 speed=0.982x elapsed=0:01:16.65    frame= 1873 fps= 24 q=21.0 size=N/A time=00:01:15.24 bitrate=N/A dup=1131 drop=0 speed=0.975x elapsed=0:01:17.16    frame= 1873 fps= 24 q=21.0 size=N/A time=00:01:15.24 bitrate=N/A dup=1131 drop=0 speed=0.969x elapsed=0:01:17.68    frame= 1873 fps= 24 q=21.0 size=N/A time=00:01:15.24 bitrate=N/A dup=1131 drop=0 speed=0.962x elapsed=0:01:18.20    frame= 1873 fps= 24 q=21.0 size=N/A time=00:01:15.24 bitrate=N/A dup=1131 drop=0 speed=0.956x elapsed=0:01:18.72    frame= 1873 fps= 24 q=21.0 size=N/A time=00:01:15.24 bitrate=N/A dup=1131 drop=0 speed=0.95x elapsed=0:01:19.23    frame= 1883 fps= 24 q=21.0 size=N/A time=00:01:15.64 bitrate=N/A dup=1131 drop=0 speed=0.948x elapsed=0:01:19.75    frame= 1916 fps= 24 q=12.0 size=N/A time=00:01:16.96 bitrate=N/A dup=1211 drop=0 speed=0.959x elapsed=0:01:20.28    frame= 1983 fps= 25 q=21.0 size=N/A time=00:01:19.64 bitrate=N/A dup=1211 drop=0 speed=0.986x elapsed=0:01:20.80    frame= 1983 fps= 24 q=21.0 size=N/A time=00:01:19.64 bitrate=N/A dup=1211 drop=0 speed=0.979x elapsed=0:01:21.32    frame= 2067 fps= 25 q=12.0 size=N/A time=00:01:23.00 bitrate=N/A dup=1296 drop=0 speed=1.01x elapsed=0:01:21.83    frame= 2088 fps= 25 q=21.0 size=N/A time=00:01:23.84 bitrate=N/A dup=1296 drop=0 speed=1.02x elapsed=0:01:22.35    frame= 2088 fps= 25 q=21.0 size=N/A time=00:01:23.84 bitrate=N/A dup=1296 drop=0 speed=1.01x elapsed=0:01:22.86    frame= 2098 fps= 25 q=21.0 size=N/A time=00:01:24.24 bitrate=N/A dup=1296 drop=0 speed=1.01x elapsed=0:01:23.38    frame= 2108 fps= 25 q=21.0 size=N/A time=00:01:24.64 bitrate=N/A dup=1296 drop=0 speed=1.01x elapsed=0:01:23.89    frame= 2142 fps= 25 q=12.0 size=N/A time=00:01:26.00 bitrate=N/A dup=1326 drop=0 speed=1.02x elapsed=0:01:24.41    frame= 2158 fps= 25 q=22.0 size=N/A time=00:01:26.64 bitrate=N/A dup=1326 drop=0 speed=1.02x elapsed=0:01:24.93    frame= 2168 fps= 25 q=21.0 size=N/A time=00:01:27.04 bitrate=N/A dup=1326 drop=0 speed=1.02x elapsed=0:01:25.44    frame= 2175 fps= 25 q=16.0 size=N/A time=00:01:27.32 bitrate=N/A dup=1326 drop=0 speed=1.02x elapsed=0:01:25.96    frame= 2178 fps= 25 q=21.0 size=N/A time=00:01:27.44 bitrate=N/A dup=1326 drop=0 speed=1.01x elapsed=0:01:26.48    frame= 2208 fps= 25 q=19.0 size=N/A time=00:01:28.64 bitrate=N/A dup=1346 drop=0 speed=1.02x elapsed=0:01:27.00    frame= 2218 fps= 25 q=21.0 size=N/A time=00:01:29.04 bitrate=N/A dup=1346 drop=0 speed=1.02x elapsed=0:01:27.53    frame= 2218 fps= 25 q=21.0 size=N/A time=00:01:29.04 bitrate=N/A dup=1346 drop=0 speed=1.01x elapsed=0:01:28.05    frame= 2228 fps= 25 q=21.0 size=N/A time=00:01:29.44 bitrate=N/A dup=1346 drop=0 speed=1.01x elapsed=0:01:28.56    frame= 2228 fps= 25 q=21.0 size=N/A time=00:01:29.44 bitrate=N/A dup=1346 drop=0 speed=   1x elapsed=0:01:29.09    frame= 2238 fps= 25 q=21.0 size=N/A time=00:01:29.84 bitrate=N/A dup=1346 drop=0 speed=   1x elapsed=0:01:29.62    frame= 2241 fps= 25 q=17.0 size=N/A time=00:01:29.96 bitrate=N/A dup=1346 drop=0 speed=0.998x elapsed=0:01:30.13    frame= 2278 fps= 25 q=19.0 size=N/A time=00:01:31.44 bitrate=N/A dup=1376 drop=0 speed=1.01x elapsed=0:01:30.65    frame= 2288 fps= 25 q=21.0 size=N/A time=00:01:31.84 bitrate=N/A dup=1376 drop=0 speed=1.01x elapsed=0:01:31.16    frame= 2288 fps= 25 q=21.0 size=N/A time=00:01:31.84 bitrate=N/A dup=1376 drop=0 speed=   1x elapsed=0:01:31.67    frame= 2298 fps= 25 q=21.0 size=N/A time=00:01:32.24 bitrate=N/A dup=1376 drop=0 speed=   1x elapsed=0:01:32.19    frame= 2347 fps= 25 q=23.0 size=N/A time=00:01:34.20 bitrate=N/A dup=1406 drop=0 speed=1.02x elapsed=0:01:32.71    frame= 2358 fps= 25 q=21.0 size=N/A time=00:01:34.64 bitrate=N/A dup=1406 drop=0 speed=1.02x elapsed=0:01:33.22    frame= 2358 fps= 25 q=21.0 size=N/A time=00:01:34.64 bitrate=N/A dup=1406 drop=0 speed=1.01x elapsed=0:01:33.74    frame= 2393 fps= 25 q=19.0 size=N/A time=00:01:36.04 bitrate=N/A dup=1431 drop=0 speed=1.02x elapsed=0:01:34.25    frame= 2403 fps= 25 q=25.0 size=N/A time=00:01:36.44 bitrate=N/A dup=1431 drop=0 speed=1.02x elapsed=0:01:34.78    frame= 2413 fps= 25 q=21.0 size=N/A time=00:01:36.84 bitrate=N/A dup=1431 drop=0 speed=1.02x elapsed=0:01:35.29    frame= 2418 fps= 25 q=15.0 size=N/A time=00:01:37.04 bitrate=N/A dup=1431 drop=0 speed=1.01x elapsed=0:01:35.80    frame= 2423 fps= 25 q=21.0 size=N/A time=00:01:37.24 bitrate=N/A dup=1431 drop=0 speed=1.01x elapsed=0:01:36.32    frame= 2433 fps= 25 q=21.0 size=N/A time=00:01:37.64 bitrate=N/A dup=1431 drop=0 speed=1.01x elapsed=0:01:36.83    frame= 2442 fps= 25 q=14.0 size=N/A time=00:01:38.00 bitrate=N/A dup=1461 drop=0 speed=1.01x elapsed=0:01:37.34    frame= 2483 fps= 25 q=21.0 size=N/A time=00:01:39.64 bitrate=N/A dup=1461 drop=0 speed=1.02x elapsed=0:01:37.86    frame= 2493 fps= 25 q=21.0 size=N/A time=00:01:40.04 bitrate=N/A dup=1461 drop=0 speed=1.02x elapsed=0:01:38.38    frame= 2503 fps= 25 q=25.0 size=N/A time=00:01:40.44 bitrate=N/A dup=1461 drop=0 speed=1.02x elapsed=0:01:38.89    frame= 2515 fps= 25 q=13.0 size=N/A time=00:01:40.92 bitrate=N/A dup=1481 drop=0 speed=1.02x elapsed=0:01:39.42    frame= 2533 fps= 25 q=19.0 size=N/A time=00:01:41.64 bitrate=N/A dup=1481 drop=0 speed=1.02x elapsed=0:01:39.94    frame= 2543 fps= 25 q=21.0 size=N/A time=00:01:42.04 bitrate=N/A dup=1481 drop=0 speed=1.02x elapsed=0:01:40.45    frame= 2543 fps= 25 q=21.0 size=N/A time=00:01:42.04 bitrate=N/A dup=1481 drop=0 speed=1.01x elapsed=0:01:40.98    frame= 2553 fps= 25 q=25.0 size=N/A time=00:01:42.44 bitrate=N/A dup=1481 drop=0 speed=1.01x elapsed=0:01:41.49    frame= 2563 fps= 25 q=21.0 size=N/A time=00:01:42.84 bitrate=N/A dup=1481 drop=0 speed=1.01x elapsed=0:01:42.00    frame= 2600 fps= 25 q=12.0 size=N/A time=00:01:44.32 bitrate=N/A dup=1521 drop=0 speed=1.02x elapsed=0:01:42.53    frame= 2633 fps= 26 q=21.0 size=N/A time=00:01:45.64 bitrate=N/A dup=1521 drop=0 speed=1.03x elapsed=0:01:43.05    frame= 2641 fps= 25 q=15.0 size=N/A time=00:01:45.96 bitrate=N/A dup=1521 drop=0 speed=1.02x elapsed=0:01:43.56    frame= 2644 fps= 25 q=19.0 size=N/A time=00:01:46.08 bitrate=N/A dup=1521 drop=0 speed=1.02x elapsed=0:01:44.08    frame= 2653 fps= 25 q=25.0 size=N/A time=00:01:46.44 bitrate=N/A dup=1521 drop=0 speed=1.02x elapsed=0:01:44.61    frame= 2663 fps= 25 q=21.0 size=N/A time=00:01:46.84 bitrate=N/A dup=1521 drop=0 speed=1.02x elapsed=0:01:45.13    frame= 2673 fps= 25 q=21.0 size=N/A time=00:01:47.24 bitrate=N/A dup=1521 drop=0 speed=1.02x elapsed=0:01:45.64    frame= 2679 fps= 25 q=15.0 size=N/A time=00:01:47.48 bitrate=N/A dup=1521 drop=0 speed=1.01x elapsed=0:01:46.15    frame= 2684 fps= 25 q=19.0 size=N/A time=00:01:47.68 bitrate=N/A dup=1521 drop=0 speed=1.01x elapsed=0:01:46.68    frame= 2693 fps= 25 q=21.0 size=N/A time=00:01:48.04 bitrate=N/A dup=1521 drop=0 speed=1.01x elapsed=0:01:47.19    frame= 2703 fps= 25 q=25.0 size=N/A time=00:01:48.44 bitrate=N/A dup=1521 drop=0 speed=1.01x elapsed=0:01:47.70    frame= 2734 fps= 25 q=12.0 size=N/A time=00:01:49.68 bitrate=N/A dup=1551 drop=0 speed=1.01x elapsed=0:01:48.22    frame= 2753 fps= 25 q=25.0 size=N/A time=00:01:50.44 bitrate=N/A dup=1551 drop=0 speed=1.02x elapsed=0:01:48.74    frame= 2753 fps= 25 q=25.0 size=N/A time=00:01:50.44 bitrate=N/A dup=1551 drop=0 speed=1.01x elapsed=0:01:49.26    frame= 2763 fps= 25 q=21.0 size=N/A time=00:01:50.84 bitrate=N/A dup=1551 drop=0 speed=1.01x elapsed=0:01:49.76    frame= 2771 fps= 25 q=16.0 size=N/A time=00:01:51.16 bitrate=N/A dup=1551 drop=0 speed=1.01x elapsed=0:01:50.29    frame= 2773 fps= 25 q=21.0 size=N/A time=00:01:51.24 bitrate=N/A dup=1551 drop=0 speed=   1x elapsed=0:01:50.80    frame= 2808 fps= 25 q=20.0 size=N/A time=00:01:52.64 bitrate=N/A dup=1576 drop=0 speed=1.01x elapsed=0:01:51.32    frame= 2818 fps= 25 q=21.0 size=N/A time=00:01:53.04 bitrate=N/A dup=1576 drop=0 speed=1.01x elapsed=0:01:51.83    frame= 2828 fps= 25 q=21.0 size=N/A time=00:01:53.44 bitrate=N/A dup=1576 drop=0 speed=1.01x elapsed=0:01:52.36    frame= 2868 fps= 25 q=19.0 size=N/A time=00:01:55.04 bitrate=N/A dup=1606 drop=0 speed=1.02x elapsed=0:01:52.88    frame= 2878 fps= 25 q=21.0 size=N/A time=00:01:55.44 bitrate=N/A dup=1606 drop=0 speed=1.02x elapsed=0:01:53.39    frame= 2888 fps= 25 q=21.0 size=N/A time=00:01:55.84 bitrate=N/A dup=1606 drop=0 speed=1.02x elapsed=0:01:53.92    frame= 2888 fps= 25 q=21.0 size=N/A time=00:01:55.84 bitrate=N/A dup=1606 drop=0 speed=1.01x elapsed=0:01:54.43    frame= 2898 fps= 25 q=21.0 size=N/A time=00:01:56.24 bitrate=N/A dup=1606 drop=0 speed=1.01x elapsed=0:01:54.93    frame= 2908 fps= 25 q=21.0 size=N/A time=00:01:56.64 bitrate=N/A dup=1606 drop=0 speed=1.01x elapsed=0:01:55.45    frame= 2918 fps= 25 q=21.0 size=N/A time=00:01:57.04 bitrate=N/A dup=1606 drop=0 speed=1.01x elapsed=0:01:55.97    frame= 2943 fps= 25 q=12.0 size=N/A time=00:01:58.04 bitrate=N/A dup=1636 drop=0 speed=1.01x elapsed=0:01:56.49    frame= 2958 fps= 25 q=20.0 size=N/A time=00:01:58.64 bitrate=N/A dup=1636 drop=0 speed=1.01x elapsed=0:01:57.00    frame= 2978 fps= 25 q=21.0 size=N/A time=00:01:59.44 bitrate=N/A dup=1636 drop=0 speed=1.02x elapsed=0:01:57.53    frame= 2978 fps= 25 q=21.0 size=N/A time=00:01:59.44 bitrate=N/A dup=1636 drop=0 speed=1.01x elapsed=0:01:58.03    frame= 2998 fps= 25 q=21.0 size=N/A time=00:02:00.24 bitrate=N/A dup=1636 drop=0 speed=1.01x elapsed=0:01:58.54    frame= 2998 fps= 25 q=21.0 size=N/A time=00:02:00.24 bitrate=N/A dup=1636 drop=0 speed=1.01x elapsed=0:01:59.07    frame= 3028 fps= 25 q=19.0 size=N/A time=00:02:01.44 bitrate=N/A dup=1656 drop=0 speed=1.02x elapsed=0:01:59.58    frame= 3038 fps= 25 q=21.0 size=N/A time=00:02:01.84 bitrate=N/A dup=1656 drop=0 speed=1.01x elapsed=0:02:00.09    frame= 3047 fps= 25 q=23.0 size=N/A time=00:02:02.20 bitrate=N/A dup=1656 drop=0 speed=1.01x elapsed=0:02:00.62    frame= 3058 fps= 25 q=21.0 size=N/A time=00:02:02.64 bitrate=N/A dup=1656 drop=0 speed=1.01x elapsed=0:02:01.16    frame= 3085 fps= 25 q=12.0 size=N/A time=00:02:03.72 bitrate=N/A dup=1676 drop=0 speed=1.02x elapsed=0:02:01.70    frame= 3098 fps= 25 q=21.0 size=N/A time=00:02:04.24 bitrate=N/A dup=1676 drop=0 speed=1.02x elapsed=0:02:02.21    frame= 3108 fps= 25 q=21.0 size=N/A time=00:02:04.64 bitrate=N/A dup=1676 drop=0 speed=1.02x elapsed=0:02:02.73    frame= 3108 fps= 25 q=21.0 size=N/A time=00:02:04.64 bitrate=N/A dup=1676 drop=0 speed=1.01x elapsed=0:02:03.23    frame= 3118 fps= 25 q=21.0 size=N/A time=00:02:05.04 bitrate=N/A dup=1676 drop=0 speed=1.01x elapsed=0:02:03.76    frame= 3128 fps= 25 q=21.0 size=N/A time=00:02:05.44 bitrate=N/A dup=1676 drop=0 speed=1.01x elapsed=0:02:04.26    frame= 3138 fps= 25 q=21.0 size=N/A time=00:02:05.84 bitrate=N/A dup=1676 drop=0 speed=1.01x elapsed=0:02:04.79    frame= 3140 fps= 25 q=17.0 size=N/A time=00:02:05.92 bitrate=N/A dup=1676 drop=0 speed=   1x elapsed=0:02:05.31    frame= 3161 fps= 25 q=13.0 size=N/A time=00:02:06.76 bitrate=N/A dup=1711 drop=0 speed=1.01x elapsed=0:02:05.83    frame= 3203 fps= 25 q=25.0 size=N/A time=00:02:08.44 bitrate=N/A dup=1711 drop=0 speed=1.02x elapsed=0:02:06.34    frame= 3213 fps= 25 q=21.0 size=N/A time=00:02:08.84 bitrate=N/A dup=1711 drop=0 speed=1.02x elapsed=0:02:06.86    frame= 3223 fps= 25 q=21.0 size=N/A time=00:02:09.24 bitrate=N/A dup=1711 drop=0 speed=1.01x elapsed=0:02:07.39    frame= 3233 fps= 25 q=21.0 size=N/A time=00:02:09.64 bitrate=N/A dup=1711 drop=0 speed=1.01x elapsed=0:02:07.89    frame= 3243 fps= 25 q=21.0 size=N/A time=00:02:10.04 bitrate=N/A dup=1711 drop=0 speed=1.01x elapsed=0:02:08.42    frame= 3253 fps= 25 q=25.0 size=N/A time=00:02:10.44 bitrate=N/A dup=1711 drop=0 speed=1.01x elapsed=0:02:08.95    frame= 3263 fps= 25 q=21.0 size=N/A time=00:02:10.84 bitrate=N/A dup=1711 drop=0 speed=1.01x elapsed=0:02:09.46    frame= 3273 fps= 25 q=21.0 size=N/A time=00:02:11.24 bitrate=N/A dup=1711 drop=0 speed=1.01x elapsed=0:02:09.97    frame= 3293 fps= 25 q=12.0 size=N/A time=00:02:12.04 bitrate=N/A dup=1731 drop=0 speed=1.01x elapsed=0:02:10.49    frame= 3307 fps= 25 q=16.0 size=N/A time=00:02:12.60 bitrate=N/A dup=1731 drop=0 speed=1.01x elapsed=0:02:11.01    frame= 3313 fps= 25 q=21.0 size=N/A time=00:02:12.84 bitrate=N/A dup=1731 drop=0 speed=1.01x elapsed=0:02:11.52    frame= 3323 fps= 25 q=21.0 size=N/A time=00:02:13.24 bitrate=N/A dup=1731 drop=0 speed=1.01x elapsed=0:02:12.04    frame= 3333 fps= 25 q=21.0 size=N/A time=00:02:13.64 bitrate=N/A dup=1731 drop=0 speed=1.01x elapsed=0:02:12.57    frame= 3373 fps= 25 q=21.0 size=N/A time=00:02:15.24 bitrate=N/A dup=1751 drop=0 speed=1.02x elapsed=0:02:13.08    frame= 3383 fps= 25 q=21.0 size=N/A time=00:02:15.64 bitrate=N/A dup=1751 drop=0 speed=1.02x elapsed=0:02:13.60    frame= 3393 fps= 25 q=21.0 size=N/A time=00:02:16.04 bitrate=N/A dup=1751 drop=0 speed=1.01x elapsed=0:02:14.12    frame= 3403 fps= 25 q=25.0 size=N/A time=00:02:16.44 bitrate=N/A dup=1751 drop=0 speed=1.01x elapsed=0:02:14.63    frame= 3413 fps= 25 q=21.0 size=N/A time=00:02:16.84 bitrate=N/A dup=1751 drop=0 speed=1.01x elapsed=0:02:15.15    frame= 3423 fps= 25 q=22.0 size=N/A time=00:02:17.24 bitrate=N/A dup=1751 drop=0 speed=1.01x elapsed=0:02:15.66    frame= 3423 fps= 25 q=22.0 size=N/A time=00:02:17.24 bitrate=N/A dup=1751 drop=0 speed=1.01x elapsed=0:02:16.18    frame= 3433 fps= 25 q=21.0 size=N/A time=00:02:17.64 bitrate=N/A dup=1751 drop=0 speed=1.01x elapsed=0:02:16.69    frame= 3443 fps= 25 q=22.0 size=N/A time=00:02:18.04 bitrate=N/A dup=1751 drop=0 speed=1.01x elapsed=0:02:17.21    frame= 3443 fps= 25 q=22.0 size=N/A time=00:02:18.04 bitrate=N/A dup=1751 drop=0 speed=   1x elapsed=0:02:17.72    frame= 3483 fps= 25 q=20.0 size=N/A time=00:02:19.64 bitrate=N/A dup=1781 drop=0 speed=1.01x elapsed=0:02:18.23    frame= 3483 fps= 25 q=20.0 size=N/A time=00:02:19.64 bitrate=N/A dup=1781 drop=0 speed=1.01x elapsed=0:02:18.76    frame= 3493 fps= 25 q=22.0 size=N/A time=00:02:20.04 bitrate=N/A dup=1781 drop=0 speed=1.01x elapsed=0:02:19.27    frame= 3503 fps= 25 q=25.0 size=N/A time=00:02:20.44 bitrate=N/A dup=1781 drop=0 speed=   1x elapsed=0:02:19.79    frame= 3525 fps= 25 q=12.0 size=N/A time=00:02:21.32 bitrate=N/A dup=1821 drop=0 speed=1.01x elapsed=0:02:20.32    frame= 3553 fps= 25 q=23.0 size=N/A time=00:02:22.44 bitrate=N/A dup=1821 drop=0 speed=1.01x elapsed=0:02:20.83    frame= 3563 fps= 25 q=21.0 size=N/A time=00:02:22.84 bitrate=N/A dup=1821 drop=0 speed=1.01x elapsed=0:02:21.34    frame= 3573 fps= 25 q=22.0 size=N/A time=00:02:23.24 bitrate=N/A dup=1821 drop=0 speed=1.01x elapsed=0:02:21.87    frame= 3574 fps= 25 q=20.0 size=N/A time=00:02:23.28 bitrate=N/A dup=1821 drop=0 speed=1.01x elapsed=0:02:22.38    frame= 3583 fps= 25 q=21.0 size=N/A time=00:02:23.64 bitrate=N/A dup=1821 drop=0 speed=1.01x elapsed=0:02:22.89    frame= 3618 fps= 25 q=19.0 size=N/A time=00:02:25.04 bitrate=N/A dup=1846 drop=0 speed=1.01x elapsed=0:02:23.41    frame= 3621 fps= 25 q=16.0 size=N/A time=00:02:25.16 bitrate=N/A dup=1846 drop=0 speed=1.01x elapsed=0:02:23.92    frame= 3628 fps= 25 q=21.0 size=N/A time=00:02:25.44 bitrate=N/A dup=1846 drop=0 speed=1.01x elapsed=0:02:24.44    frame= 3638 fps= 25 q=21.0 size=N/A time=00:02:25.84 bitrate=N/A dup=1846 drop=0 speed=1.01x elapsed=0:02:24.95    frame= 3647 fps= 25 q=15.0 size=N/A time=00:02:26.20 bitrate=N/A dup=1876 drop=0 speed=1.01x elapsed=0:02:25.47    frame= 3678 fps= 25 q=20.0 size=N/A time=00:02:27.44 bitrate=N/A dup=1876 drop=0 speed=1.01x elapsed=0:02:25.99    frame= 3688 fps= 25 q=22.0 size=N/A time=00:02:27.84 bitrate=N/A dup=1876 drop=0 speed=1.01x elapsed=0:02:26.50    frame= 3688 fps= 25 q=22.0 size=N/A time=00:02:27.84 bitrate=N/A dup=1876 drop=0 speed=1.01x elapsed=0:02:27.02    frame= 3699 fps= 25 q=20.0 size=N/A time=00:02:28.28 bitrate=N/A dup=1876 drop=0 speed=   1x elapsed=0:02:27.54    frame= 3711 fps= 25 q=18.0 size=N/A time=00:02:28.76 bitrate=N/A dup=1876 drop=0 speed=   1x elapsed=0:02:28.07    frame= 3758 fps= 25 q=20.0 size=N/A time=00:02:30.64 bitrate=N/A dup=1916 drop=0 speed=1.01x elapsed=0:02:28.58    frame= 3769 fps= 25 q=19.0 size=N/A time=00:02:31.08 bitrate=N/A dup=1916 drop=0 speed=1.01x elapsed=0:02:29.10    frame= 3778 fps= 25 q=21.0 size=N/A time=00:02:31.44 bitrate=N/A dup=1916 drop=0 speed=1.01x elapsed=0:02:29.62    frame= 3788 fps= 25 q=21.0 size=N/A time=00:02:31.84 bitrate=N/A dup=1916 drop=0 speed=1.01x elapsed=0:02:30.13    frame= 3798 fps= 25 q=21.0 size=N/A time=00:02:32.24 bitrate=N/A dup=1916 drop=0 speed=1.01x elapsed=0:02:30.65    frame= 3811 fps= 25 q=17.0 size=N/A time=00:02:32.76 bitrate=N/A dup=1916 drop=0 speed=1.01x elapsed=0:02:31.16    frame= 3818 fps= 25 q=21.0 size=N/A time=00:02:33.04 bitrate=N/A dup=1916 drop=0 speed=1.01x elapsed=0:02:31.68    frame= 3836 fps= 25 q=15.0 size=N/A time=00:02:33.76 bitrate=N/A dup=1936 drop=0 speed=1.01x elapsed=0:02:32.20    frame= 3868 fps= 25 q=21.0 size=N/A time=00:02:35.04 bitrate=N/A dup=1936 drop=0 speed=1.02x elapsed=0:02:32.71    frame= 3878 fps= 25 q=21.0 size=N/A time=00:02:35.44 bitrate=N/A dup=1936 drop=0 speed=1.01x elapsed=0:02:33.23    frame= 3892 fps= 25 q=17.0 size=N/A time=00:02:36.00 bitrate=N/A dup=1936 drop=0 speed=1.01x elapsed=0:02:33.73    frame= 3898 fps= 25 q=21.0 size=N/A time=00:02:36.24 bitrate=N/A dup=1936 drop=0 speed=1.01x elapsed=0:02:34.25    frame= 3908 fps= 25 q=22.0 size=N/A time=00:02:36.64 bitrate=N/A dup=1936 drop=0 speed=1.01x elapsed=0:02:34.78    frame= 3908 fps= 25 q=22.0 size=N/A time=00:02:36.64 bitrate=N/A dup=1936 drop=0 speed=1.01x elapsed=0:02:35.28    frame= 3918 fps= 25 q=21.0 size=N/A time=00:02:37.04 bitrate=N/A dup=1936 drop=0 speed=1.01x elapsed=0:02:35.79    frame= 3928 fps= 25 q=22.0 size=N/A time=00:02:37.44 bitrate=N/A dup=1936 drop=0 speed=1.01x elapsed=0:02:36.32    frame= 3938 fps= 25 q=22.0 size=N/A time=00:02:37.84 bitrate=N/A dup=1936 drop=0 speed=1.01x elapsed=0:02:36.83    frame= 3978 fps= 25 q=20.0 size=N/A time=00:02:39.44 bitrate=N/A dup=1966 drop=0 speed=1.01x elapsed=0:02:37.35    frame= 3988 fps= 25 q=22.0 size=N/A time=00:02:39.84 bitrate=N/A dup=1966 drop=0 speed=1.01x elapsed=0:02:37.86    frame= 3989 fps= 25 q=20.0 size=N/A time=00:02:39.88 bitrate=N/A dup=1966 drop=0 speed=1.01x elapsed=0:02:38.39    frame= 3998 fps= 25 q=22.0 size=N/A time=00:02:40.24 bitrate=N/A dup=1966 drop=0 speed=1.01x elapsed=0:02:38.89    frame= 4008 fps= 25 q=22.0 size=N/A time=00:02:40.64 bitrate=N/A dup=1966 drop=0 speed=1.01x elapsed=0:02:39.41    frame= 4018 fps= 25 q=22.0 size=N/A time=00:02:41.04 bitrate=N/A dup=1966 drop=0 speed=1.01x elapsed=0:02:39.92    frame= 4026 fps= 25 q=18.0 size=N/A time=00:02:41.36 bitrate=N/A dup=2001 drop=0 speed=1.01x elapsed=0:02:40.44    frame= 4063 fps= 25 q=20.0 size=N/A time=00:02:42.84 bitrate=N/A dup=2001 drop=0 speed=1.01x elapsed=0:02:40.96    frame= 4073 fps= 25 q=21.0 size=N/A time=00:02:43.24 bitrate=N/A dup=2001 drop=0 speed=1.01x elapsed=0:02:41.47    frame= 4083 fps= 25 q=22.0 size=N/A time=00:02:43.64 bitrate=N/A dup=2001 drop=0 speed=1.01x elapsed=0:02:41.99    frame= 4093 fps= 25 q=21.0 size=N/A time=00:02:44.04 bitrate=N/A dup=2001 drop=0 speed=1.01x elapsed=0:02:42.51    frame= 4103 fps= 25 q=25.0 size=N/A time=00:02:44.44 bitrate=N/A dup=2001 drop=0 speed=1.01x elapsed=0:02:43.02    frame= 4110 fps= 25 q=18.0 size=N/A time=00:02:44.72 bitrate=N/A dup=2001 drop=0 speed=1.01x elapsed=0:02:43.54    frame= 4113 fps= 25 q=22.0 size=N/A time=00:02:44.84 bitrate=N/A dup=2001 drop=0 speed=   1x elapsed=0:02:44.05    frame= 4120 fps= 25 q=17.0 size=N/A time=00:02:45.12 bitrate=N/A dup=2001 drop=0 speed=   1x elapsed=0:02:44.56    frame= 4153 fps= 25 q=23.0 size=N/A time=00:02:46.44 bitrate=N/A dup=2031 drop=0 speed=1.01x elapsed=0:02:45.08    frame= 4163 fps= 25 q=21.0 size=N/A time=00:02:46.84 bitrate=N/A dup=2031 drop=0 speed=1.01x elapsed=0:02:45.60    frame= 4171 fps= 25 q=14.0 size=N/A time=00:02:47.16 bitrate=N/A dup=2031 drop=0 speed=1.01x elapsed=0:02:46.11    frame= 4183 fps= 25 q=21.0 size=N/A time=00:02:47.64 bitrate=N/A dup=2031 drop=0 speed=1.01x elapsed=0:02:46.63    frame= 4226 fps= 25 q=12.0 size=N/A time=00:02:49.36 bitrate=N/A dup=2071 drop=0 speed=1.01x elapsed=0:02:47.14    frame= 4233 fps= 25 q=19.0 size=N/A time=00:02:49.64 bitrate=N/A dup=2071 drop=0 speed=1.01x elapsed=0:02:47.66    frame= 4243 fps= 25 q=21.0 size=N/A time=00:02:50.04 bitrate=N/A dup=2071 drop=0 speed=1.01x elapsed=0:02:48.17    frame= 4253 fps= 25 q=25.0 size=N/A time=00:02:50.44 bitrate=N/A dup=2071 drop=0 speed=1.01x elapsed=0:02:48.69    frame= 4263 fps= 25 q=21.0 size=N/A time=00:02:50.84 bitrate=N/A dup=2071 drop=0 speed=1.01x elapsed=0:02:49.20    frame= 4273 fps= 25 q=21.0 size=N/A time=00:02:51.24 bitrate=N/A dup=2071 drop=0 speed=1.01x elapsed=0:02:49.73    frame= 4273 fps= 25 q=21.0 size=N/A time=00:02:51.24 bitrate=N/A dup=2071 drop=0 speed=1.01x elapsed=0:02:50.26    frame= 4283 fps= 25 q=21.0 size=N/A time=00:02:51.64 bitrate=N/A dup=2071 drop=0 speed=1.01x elapsed=0:02:50.77    frame= 4323 fps= 25 q=19.0 size=N/A time=00:02:53.24 bitrate=N/A dup=2101 drop=0 speed=1.01x elapsed=0:02:51.29    frame= 4330 fps= 25 q=15.0 size=N/A time=00:02:53.52 bitrate=N/A dup=2101 drop=0 speed=1.01x elapsed=0:02:51.80    frame= 4333 fps= 25 q=21.0 size=N/A time=00:02:53.64 bitrate=N/A dup=2101 drop=0 speed=1.01x elapsed=0:02:52.31    frame= 4343 fps= 25 q=21.0 size=N/A time=00:02:54.04 bitrate=N/A dup=2101 drop=0 speed=1.01x elapsed=0:02:52.83    frame= 4347 fps= 25 q=15.0 size=N/A time=00:02:54.20 bitrate=N/A dup=2101 drop=0 speed=   1x elapsed=0:02:53.35    frame= 4354 fps= 25 q=22.0 size=N/A time=00:02:54.48 bitrate=N/A dup=2101 drop=0 speed=   1x elapsed=0:02:53.87    frame= 4363 fps= 25 q=21.0 size=N/A time=00:02:54.84 bitrate=N/A dup=2101 drop=0 speed=   1x elapsed=0:02:54.38    frame= 4413 fps= 25 q=19.0 size=N/A time=00:02:56.84 bitrate=N/A dup=2141 drop=0 speed=1.01x elapsed=0:02:54.90    frame= 4423 fps= 25 q=21.0 size=N/A time=00:02:57.24 bitrate=N/A dup=2141 drop=0 speed=1.01x elapsed=0:02:55.41    frame= 4433 fps= 25 q=21.0 size=N/A time=00:02:57.64 bitrate=N/A dup=2141 drop=0 speed=1.01x elapsed=0:02:55.92    frame= 4441 fps= 25 q=13.0 size=N/A time=00:02:57.96 bitrate=N/A dup=2141 drop=0 speed=1.01x elapsed=0:02:56.44    frame= 4453 fps= 25 q=25.0 size=N/A time=00:02:58.44 bitrate=N/A dup=2141 drop=0 speed=1.01x elapsed=0:02:56.96    frame= 4463 fps= 25 q=21.0 size=N/A time=00:02:58.84 bitrate=N/A dup=2141 drop=0 speed=1.01x elapsed=0:02:57.48    frame= 4498 fps= 25 q=19.0 size=N/A time=00:03:00.24 bitrate=N/A dup=2166 drop=0 speed=1.01x elapsed=0:02:57.99    frame= 4508 fps= 25 q=21.0 size=N/A time=00:03:00.64 bitrate=N/A dup=2166 drop=0 speed=1.01x elapsed=0:02:58.50    frame= 4518 fps= 25 q=21.0 size=N/A time=00:03:01.04 bitrate=N/A dup=2166 drop=0 speed=1.01x elapsed=0:02:59.02    frame= 4522 fps= 25 q=14.0 size=N/A time=00:03:01.20 bitrate=N/A dup=2166 drop=0 speed=1.01x elapsed=0:02:59.53    frame= 4528 fps= 25 q=21.0 size=N/A time=00:03:01.44 bitrate=N/A dup=2166 drop=0 speed=1.01x elapsed=0:03:00.05    frame= 4538 fps= 25 q=21.0 size=N/A time=00:03:01.84 bitrate=N/A dup=2166 drop=0 speed=1.01x elapsed=0:03:00.57    frame= 4548 fps= 25 q=21.0 size=N/A time=00:03:02.24 bitrate=N/A dup=2166 drop=0 speed=1.01x elapsed=0:03:01.08    frame= 4549 fps= 25 q=19.0 size=N/A time=00:03:02.28 bitrate=N/A dup=2166 drop=0 speed=   1x elapsed=0:03:01.61    frame= 4558 fps= 25 q=21.0 size=N/A time=00:03:02.64 bitrate=N/A dup=2166 drop=0 speed=   1x elapsed=0:03:02.13    frame= 4587 fps= 25 q=12.0 size=N/A time=00:03:03.80 bitrate=N/A dup=2196 drop=0 speed=1.01x elapsed=0:03:02.65    frame= 4608 fps= 25 q=21.0 size=N/A time=00:03:04.64 bitrate=N/A dup=2196 drop=0 speed=1.01x elapsed=0:03:03.17    frame= 4618 fps= 25 q=21.0 size=N/A time=00:03:05.04 bitrate=N/A dup=2196 drop=0 speed=1.01x elapsed=0:03:03.69    frame= 4622 fps= 25 q=15.0 size=N/A time=00:03:05.20 bitrate=N/A dup=2196 drop=0 speed=1.01x elapsed=0:03:04.21    frame= 4634 fps= 25 q=13.0 size=N/A time=00:03:05.68 bitrate=N/A dup=2196 drop=0 speed=1.01x elapsed=0:03:04.73    frame= 4650 fps= 25 q=12.0 size=N/A time=00:03:06.32 bitrate=N/A dup=2226 drop=0 speed=1.01x elapsed=0:03:05.24    frame= 4688 fps= 25 q=21.0 size=N/A time=00:03:07.84 bitrate=N/A dup=2226 drop=0 speed=1.01x elapsed=0:03:05.76    frame= 4698 fps= 25 q=21.0 size=N/A time=00:03:08.24 bitrate=N/A dup=2226 drop=0 speed=1.01x elapsed=0:03:06.29    frame= 4716 fps= 25 q=13.0 size=N/A time=00:03:08.96 bitrate=N/A dup=2226 drop=0 speed=1.01x elapsed=0:03:06.80    frame= 4728 fps= 25 q=21.0 size=N/A time=00:03:09.44 bitrate=N/A dup=2226 drop=0 speed=1.01x elapsed=0:03:07.32    frame= 4728 fps= 25 q=21.0 size=N/A time=00:03:09.44 bitrate=N/A dup=2226 drop=0 speed=1.01x elapsed=0:03:07.83    frame= 4738 fps= 25 q=21.0 size=N/A time=00:03:09.84 bitrate=N/A dup=2226 drop=0 speed=1.01x elapsed=0:03:08.36    frame= 4750 fps= 25 q=14.0 size=N/A time=00:03:10.36 bitrate=N/A dup=2226 drop=0 speed=1.01x elapsed=0:03:08.87    frame= 4763 fps= 25 q=13.0 size=N/A time=00:03:10.84 bitrate=N/A dup=2226 drop=0 speed=1.01x elapsed=0:03:09.41    frame= 4774 fps= 25 q=13.0 size=N/A time=00:03:11.28 bitrate=N/A dup=2246 drop=0 speed=1.01x elapsed=0:03:09.93    frame= 4791 fps= 25 q=12.0 size=N/A time=00:03:11.96 bitrate=N/A dup=2246 drop=0 speed=1.01x elapsed=0:03:10.44    frame= 4808 fps= 25 q=21.0 size=N/A time=00:03:12.64 bitrate=N/A dup=2246 drop=0 speed=1.01x elapsed=0:03:10.96    frame= 4817 fps= 25 q=23.0 size=N/A time=00:03:13.00 bitrate=N/A dup=2246 drop=0 speed=1.01x elapsed=0:03:11.47    frame= 4821 fps= 25 q=15.0 size=N/A time=00:03:13.16 bitrate=N/A dup=2246 drop=0 speed=1.01x elapsed=0:03:12.00    frame= 4838 fps= 25 q=21.0 size=N/A time=00:03:13.84 bitrate=N/A dup=2246 drop=0 speed=1.01x elapsed=0:03:12.51    frame= 4839 fps= 25 q=19.0 size=N/A time=00:03:13.88 bitrate=N/A dup=2246 drop=0 speed=   1x elapsed=0:03:13.04    frame= 4848 fps= 25 q=21.0 size=N/A time=00:03:14.24 bitrate=N/A dup=2246 drop=0 speed=   1x elapsed=0:03:13.55    frame= 4866 fps= 25 q=12.0 size=N/A time=00:03:14.96 bitrate=N/A dup=2276 drop=0 speed=   1x elapsed=0:03:14.06    frame= 4888 fps= 25 q=19.0 size=N/A time=00:03:15.84 bitrate=N/A dup=2276 drop=0 speed=1.01x elapsed=0:03:14.58    frame= 4895 fps= 25 q=13.0 size=N/A time=00:03:16.12 bitrate=N/A dup=2276 drop=0 speed=1.01x elapsed=0:03:15.11    frame= 4898 fps= 25 q=21.0 size=N/A time=00:03:16.24 bitrate=N/A dup=2276 drop=0 speed=   1x elapsed=0:03:15.64    frame= 4908 fps= 25 q=21.0 size=N/A time=00:03:16.64 bitrate=N/A dup=2276 drop=0 speed=   1x elapsed=0:03:16.18    frame= 4908 fps= 25 q=21.0 size=N/A time=00:03:16.64 bitrate=N/A dup=2276 drop=0 speed=   1x elapsed=0:03:16.71    frame= 4918 fps= 25 q=21.0 size=N/A time=00:03:17.04 bitrate=N/A dup=2276 drop=0 speed=0.999x elapsed=0:03:17.22    frame= 4941 fps= 25 q=12.0 size=N/A time=00:03:17.96 bitrate=N/A dup=2321 drop=0 speed=   1x elapsed=0:03:17.75    frame= 4973 fps= 25 q=19.0 size=N/A time=00:03:19.24 bitrate=N/A dup=2321 drop=0 speed=   1x elapsed=0:03:18.27    frame= 4983 fps= 25 q=21.0 size=N/A time=00:03:19.64 bitrate=N/A dup=2321 drop=0 speed=   1x elapsed=0:03:18.78    frame= 4993 fps= 25 q=21.0 size=N/A time=00:03:20.04 bitrate=N/A dup=2321 drop=0 speed=   1x elapsed=0:03:19.30    frame= 4993 fps= 25 q=21.0 size=N/A time=00:03:20.04 bitrate=N/A dup=2321 drop=0 speed=   1x elapsed=0:03:19.83    frame= 5003 fps= 25 q=24.0 size=N/A time=00:03:20.44 bitrate=N/A dup=2321 drop=0 speed=   1x elapsed=0:03:20.34    frame= 5009 fps= 25 q=14.0 size=N/A time=00:03:20.68 bitrate=N/A dup=2361 drop=0 speed=0.999x elapsed=0:03:20.87    frame= 5034 fps= 25 q=12.0 size=N/A time=00:03:21.68 bitrate=N/A dup=2361 drop=0 speed=   1x elapsed=0:03:21.41    frame= 5063 fps= 25 q=21.0 size=N/A time=00:03:22.84 bitrate=N/A dup=2361 drop=0 speed=   1x elapsed=0:03:21.93    frame= 5071 fps= 25 q=13.0 size=N/A time=00:03:23.16 bitrate=N/A dup=2361 drop=0 speed=   1x elapsed=0:03:22.44    frame= 5078 fps= 25 q=13.0 size=N/A time=00:03:23.44 bitrate=N/A dup=2361 drop=0 speed=   1x elapsed=0:03:22.95    frame= 5094 fps= 25 q=12.0 size=N/A time=00:03:24.08 bitrate=N/A dup=2401 drop=0 speed=   1x elapsed=0:03:23.48    frame= 5133 fps= 25 q=19.0 size=N/A time=00:03:25.64 bitrate=N/A dup=2401 drop=0 speed=1.01x elapsed=0:03:24.00    frame= 5143 fps= 25 q=21.0 size=N/A time=00:03:26.04 bitrate=N/A dup=2401 drop=0 speed=1.01x elapsed=0:03:24.51    frame= 5148 fps= 25 q=24.0 size=N/A time=00:03:26.44 bitrate=N/A dup=2401 drop=0 speed=1.01x elapsed=0:03:25.04    frame= 5153 fps= 25 q=24.0 size=N/A time=00:03:26.44 bitrate=N/A dup=2401 drop=0 speed=   1x elapsed=0:03:25.55    frame= 5163 fps= 25 q=21.0 size=N/A time=00:03:26.84 bitrate=N/A dup=2401 drop=0 speed=   1x elapsed=0:03:26.06    frame= 5167 fps= 25 q=14.0 size=N/A time=00:03:27.00 bitrate=N/A dup=2401 drop=0 speed=   1x elapsed=0:03:26.60    frame= 5173 fps= 25 q=21.0 size=N/A time=00:03:27.24 bitrate=N/A dup=2401 drop=0 speed=   1x elapsed=0:03:27.12    frame= 5173 fps= 25 q=21.0 size=N/A time=00:03:27.24 bitrate=N/A dup=2401 drop=0 speed=0.998x elapsed=0:03:27.63    frame= 5183 fps= 25 q=21.0 size=N/A time=00:03:27.64 bitrate=N/A dup=2401 drop=0 speed=0.998x elapsed=0:03:28.14    frame= 5186 fps= 25 q=15.0 size=N/A time=00:03:27.76 bitrate=N/A dup=2401 drop=0 speed=0.996x elapsed=0:03:28.67    frame= 5229 fps= 25 q=12.0 size=N/A time=00:03:29.52 bitrate=N/A dup=2441 drop=0 speed=   1x elapsed=0:03:29.18    frame= 5243 fps= 25 q=21.0 size=N/A time=00:03:30.04 bitrate=N/A dup=2441 drop=0 speed=   1x elapsed=0:03:29.70    [vost#0:0/libx264 @ 0000022db39d8740] Error submitting a packet to the muxer: Broken pipe
    Last message repeated 1 times
[out#0/rtsp @ 0000022db3f4fe80] Error muxing a packet
[out#0/rtsp @ 0000022db3f4fe80] Task finished with error code: -32 (Broken pipe)
[out#0/rtsp @ 0000022db3f4fe80] Terminating thread with return code -32 (Broken pipe)
[out#0/rtsp @ 0000022db3f4fe80] video:66468KiB audio:0KiB subtitle:0KiB other streams:0KiB global headers:0KiB muxing overhead: unknown
frame= 5244 fps=1.7 q=27.0 Lsize=N/A time=00:03:30.08 bitrate=N/A dup=2441 drop=0 speed=0.0672x elapsed=0:52:05.33    
[libx264 @ 0000022db39d89c0] frame I:106   Avg QP:12.60  size:229765
[libx264 @ 0000022db39d89c0] frame P:5146  Avg QP:15.52  size:  8560
[libx264 @ 0000022db39d89c0] mb I  I16..4:  0.7%  4.2% 95.2%
[libx264 @ 0000022db39d89c0] mb P  I16..4:  0.0%  0.1%  0.0%  P16..4: 31.8%  1.0%  0.9%  0.0%  0.0%    skip:66.2%
[libx264 @ 0000022db39d89c0] 8x8 transform intra:7.7% inter:36.6%
[libx264 @ 0000022db39d89c0] coded y,uvDC,uvAC intra: 96.4% 82.8% 64.5% inter: 14.8% 11.2% 1.0%
[libx264 @ 0000022db39d89c0] i16 v,h,dc,p: 30% 19% 38% 13%
[libx264 @ 0000022db39d89c0] i8 v,h,dc,ddl,ddr,vr,hd,vl,hu: 24% 22% 22%  6%  4%  4%  4%  4% 10%
[libx264 @ 0000022db39d89c0] i4 v,h,dc,ddl,ddr,vr,hd,vl,hu: 21% 21%  9%  6%  7%  8%  8%  7% 11%
[libx264 @ 0000022db39d89c0] i8c dc,h,v,p: 46% 23% 22%  8%
[libx264 @ 0000022db39d89c0] Weighted P-Frames: Y:0.0% UV:0.0%
[libx264 @ 0000022db39d89c0] kb/s:2604.90
Conversion failed!
